PathFileType	4	(X/Y/Z)	/Users/itak/Documents/Research/Walk-IL/dataset/trc/00453_00167.trc
DataRate	CameraRate	NumFrames	NumMarkers	Units	OrigDataRate	OrigDataStartFrame	OrigNumFrames
100.000000	100.000000	4	53	mm	100.000000	134	536
Frame#	Time	RPSI			LPSI			L3			STRN			T10			C7			CLAV			RBAK			LBAK			LSHO			LUPA			LAEL			LAOL			LWTS			LWPS			LFRA			LIFD			LHPS			LHTS			RSHO			RUPA			RAEL			RAOL			RWTS			RWPS			RFRA			RIFD			RHTS			RHPS			RBHD			LFHD			RFHD			LBHD			LHIP			RHIP			RASI			LASI			LKNE			LTHI			LANK			LTIP			LTOE			LMT1			LMT5			LHEE			RKNE			RTHI			RANK			RTIP			RTOE			RMT1			RMT5			RHEE			
		X1	Y1	Z1	X2	Y2	Z2	X3	Y3	Z3	X4	Y4	Z4	X5	Y5	Z5	X6	Y6	Z6	X7	Y7	Z7	X8	Y8	Z8	X9	Y9	Z9	X10	Y10	Z10	X11	Y11	Z11	X12	Y12	Z12	X13	Y13	Z13	X14	Y14	Z14	X15	Y15	Z15	X16	Y16	Z16	X17	Y17	Z17	X18	Y18	Z18	X19	Y19	Z19	X20	Y20	Z20	X21	Y21	Z21	X22	Y22	Z22	X23	Y23	Z23	X24	Y24	Z24	X25	Y25	Z25	X26	Y26	Z26	X27	Y27	Z27	X28	Y28	Z28	X29	Y29	Z29	X30	Y30	Z30	X31	Y31	Z31	X32	Y32	Z32	X33	Y33	Z33	X34	Y34	Z34	X35	Y35	Z35	X36	Y36	Z36	X37	Y37	Z37	X38	Y38	Z38	X39	Y39	Z39	X40	Y40	Z40	X41	Y41	Z41	X42	Y42	Z42	X43	Y43	Z43	X44	Y44	Z44	X45	Y45	Z45	X46	Y46	Z46	X47	Y47	Z47	X48	Y48	Z48	X49	Y49	Z49	X50	Y50	Z50	X51	Y51	Z51	X52	Y52	Z52	X53	Y53	Z53	

135	1.34	-1977.067138671875	973.084228515625	-583.2805786132812	-1902.328735351562	973.6341552734375	-703.768798828125	-1928.316528320312	1065.89013671875	-618.404541015625	-1677.597412109375	1245.620239257812	-493.7435302734375	-1934.491088867188	1190.044677734375	-626.8338012695312	-1869.337158203125	1455.059448242188	-577.003662109375	-1701.468872070312	1361.402954101562	-511.7490844726562	-1975.31884765625	1339.09619140625	-527.7086181640625	-1859.868408203125	1410.002197265625	-680.9654541015625	-1730.869262695312	1428.024780273438	-709.4157104492188	-1703.809448242188	1313.34228515625	-806.3568725585938	-1672.538452148438	1101.373413085938	-844.6126098632812	-1770.981811523438	1084.157958984375	-820.0408935546875	-1613.1240234375	904.1119384765625	-777.9160766601562	-1632.083251953125	886.478759765625	-848.8958740234375	-1646.7978515625	1014.959411621094	-847.287841796875	-1593.579833984375	737.8096923828125	-775.9312744140625	-1618.93408203125	805.3955078125	-844.0589599609375	-1585.965454101562	818.3506469726562	-779.6998291015625	-1884.454956054688	1419.393188476562	-403.8190612792969	-1938.744873046875	1357.904052734375	-348.1894226074219	-1975.46337890625	1072.024169921875	-303.7270812988281	-2003.247680664062	1056.586181640625	-363.9822998046875	-1867.227783203125	871.3603515625	-296.5899353027344	-1951.709350585938	854.7106323242188	-278.8218688964844	-1977.533203125	1013.743408203125	-294.4593505859375	-1864.367065429688	712.8250122070312	-291.317626953125	-1857.40380859375	771.7400512695312	-279.3219909667969	-1934.086181640625	768.2286376953125	-272.3976745605469	-1825.39892578125	1646.641235351562	-459.7251892089844	-1635.051391601562	1658.379638671875	-542.284912109375	-1692.28076171875	1659.356567382812	-424.1329345703125	-1763.086181640625	1650.88232421875	-626.1340942382812	-1729.636596679688	862.2715454101562	-735.1575927734375	-1958.806274414062	863.0756225585938	-409.279052734375	-1833.87255859375	896.699951171875	-404.03955078125	-1685.08740234375	894.94091796875	-615.0432739257812	-1729.386596679688	438.5491638183594	-697.5775146484375	-1699.854736328125	591.06689453125	-704.6265258789062	-1847.588989257812	34.64926147460938	-776.1192016601562	-1756.366943359375	286.3932495117188	-729.722412109375	-1689.690063476562	48.88029098510742	-598.2402954101562	-1766.009155273438	58.31133270263672	-611.3662719726562	-1711.37109375	49.6556396484375	-711.9461669921875	-1921.805908203125	36.27636337280273	-756.524169921875	-1930.476806640625	468.7937622070312	-422.9248046875	-1934.578247070312	727.2119750976562	-379.495361328125	-2005.1513671875	41.62115859985352	-465.2737731933594	-1951.3125	323.686767578125	-418.8287048339844	-1794.246948242188	49.67036819458008	-399.5027160644531	-1831.63232421875	57.15929412841797	-460.2235412597656	-1900.313110351562	47.93943405151367	-376.7261657714844	-2037.127807617188	34.11171722412109	-540.4779052734375	
136	1.35	-1975.605224609375	973.303955078125	-583.1058959960938	-1900.885986328125	973.718994140625	-703.620361328125	-1926.818481445312	1065.999633789062	-618.1500854492188	-1675.814086914062	1245.415649414062	-493.6915283203125	-1932.93798828125	1190.109252929688	-626.56787109375	-1867.493774414062	1455.025146484375	-576.613525390625	-1699.615966796875	1361.227905273438	-511.6048583984375	-1973.509399414062	1339.143798828125	-527.2737426757812	-1858.208129882812	1410.058959960938	-680.621826171875	-1729.213989257812	1428.02490234375	-709.2307739257812	-1702.445190429688	1313.360961914062	-806.3171997070312	-1671.561645507812	1101.348022460938	-844.7139282226562	-1769.990844726562	1084.2861328125	-820.01318359375	-1612.376098632812	903.9710083007812	-778.167724609375	-1631.467529296875	886.3699951171875	-849.13134765625	-1645.969604492188	1014.923461914062	-847.4387817382812	-1593.061279296875	737.6261596679688	-776.161865234375	-1618.395751953125	805.3021240234375	-844.2863159179688	-1585.392333984375	818.1719970703125	-779.9915161132812	-1882.446655273438	1419.300415039062	-403.4620666503906	-1936.73876953125	1357.88427734375	-347.7559204101562	-1973.9677734375	1072.103149414062	-303.3778686523438	-2001.823852539062	1056.71826171875	-363.615478515625	-1866.198608398438	871.156005859375	-296.36669921875	-1950.686767578125	854.7005615234375	-278.5005493164062	-1976.182495117188	1013.832214355469	-294.1101989746094	-1863.83984375	712.5730590820312	-291.1688842773438	-1856.588012695312	771.5459594726562	-279.1289978027344	-1933.2197265625	768.1000366210938	-272.1512756347656	-1823.482299804688	1646.462158203125	-459.272216796875	-1633.194458007812	1658.266479492188	-541.93505859375	-1690.337646484375	1659.143188476562	-423.7451171875	-1761.26318359375	1650.822998046875	-625.6951904296875	-1728.318359375	862.054443359375	-735.0628662109375	-1957.603393554688	863.2486572265625	-409.0826721191406	-1832.571533203125	896.571533203125	-404.0054626464844	-1683.747680664062	894.6898193359375	-614.9295654296875	-1728.963745117188	438.3493347167969	-697.384521484375	-1699.1279296875	590.81884765625	-704.4611206054688	-1847.66748046875	34.64322280883789	-776.1359252929688	-1756.096435546875	286.1424560546875	-729.62060546875	-1689.741943359375	49.06223678588867	-598.1737670898438	-1766.109741210938	58.43446350097656	-611.3397827148438	-1711.5966796875	49.9217529296875	-711.8711547851562	-1921.87744140625	36.20537185668945	-756.5548706054688	-1930.41943359375	468.8793029785156	-423.2391662597656	-1933.656860351562	727.321044921875	-379.5516967773438	-2005.194213867188	41.6271858215332	-465.2534484863281	-1951.419189453125	323.8348083496094	-419.0801696777344	-1794.330688476562	49.71472930908203	-399.44580078125	-1831.666015625	57.20343399047852	-460.1830749511719	-1900.322998046875	47.90756607055664	-376.7023620605469	-2037.142822265625	34.0714225769043	-540.4937744140625	
137	1.36	-1974.049560546875	973.5490112304688	-582.9082641601562	-1899.350952148438	973.82421875	-703.4569091796875	-1925.207641601562	1066.093627929688	-617.86376953125	-1673.925537109375	1245.209594726562	-493.627197265625	-1931.290893554688	1190.166870117188	-626.2710571289062	-1865.562133789062	1454.987548828125	-576.1992797851562	-1697.658447265625	1361.044921875	-511.4416198730469	-1971.594604492188	1339.18701171875	-526.8070068359375	-1856.465087890625	1410.117309570312	-680.2545166015625	-1727.477294921875	1428.027221679688	-709.0284423828125	-1701.014770507812	1313.389282226562	-806.2708740234375	-1670.534301757812	1101.331909179688	-844.82470703125	-1768.966430664062	1084.453002929688	-819.9833374023438	-1611.581665039062	903.818115234375	-778.4260864257812	-1630.80615234375	886.2656860351562	-849.3709106445312	-1645.1083984375	1014.900695800781	-847.6095581054688	-1592.450439453125	737.4500122070312	-776.385986328125	-1617.813720703125	805.2045288085938	-844.51416015625	-1584.744384765625	818.0055541992188	-780.2769775390625	-1880.325561523438	1419.205200195312	-403.0760803222656	-1934.63427734375	1357.87109375	-347.3005981445312	-1972.378784179688	1072.185180664062	-303.0216979980469	-2000.296997070312	1056.853637695312	-363.2404479980469	-1865.065551757812	870.9598388671875	-296.1462707519531	-1949.573364257812	854.6962280273438	-278.1846618652344	-1974.736572265625	1013.922668457031	-293.7503051757812	-1863.194946289062	712.31005859375	-291.0204162597656	-1855.685180664062	771.3580932617188	-278.9316711425781	-1932.25	767.96533203125	-271.9106750488281	-1821.46240234375	1646.290893554688	-458.8026428222656	-1631.239501953125	1658.148803710938	-541.5783081054688	-1688.27880859375	1658.921630859375	-423.3493957519531	-1759.352172851562	1650.777465820312	-625.24169921875	-1726.935424804688	861.8522338867188	-734.9800415039062	-1956.304321289062	863.4099731445312	-408.8759765625	-1831.171142578125	896.4363403320312	-403.9700927734375	-1682.317626953125	894.4505615234375	-614.8231201171875	-1728.525268554688	438.1343383789062	-697.2396240234375	-1698.3671875	590.5623779296875	-704.3206787109375	-1847.75244140625	34.64395141601562	-776.1580810546875	-1755.810913085938	285.8879089355469	-729.5222778320312	-1689.807006835938	49.25533676147461	-598.1030883789062	-1766.205078125	58.52964019775391	-611.3099365234375	-1711.817260742188	50.17808532714844	-711.8031005859375	-1921.948120117188	36.14519882202148	-756.587890625	-1930.3037109375	468.9684448242188	-423.5579223632812	-1932.646484375	727.428466796875	-379.6110229492188	-2005.241821289062	41.62983703613281	-465.2311096191406	-1951.474853515625	323.9869384765625	-419.3299255371094	-1794.41845703125	49.77655792236328	-399.3761596679688	-1831.7021484375	57.25347518920898	-460.1385498046875	-1900.339721679688	47.875732421875	-376.678955078125	-2037.158935546875	34.02766418457031	-540.5037231445312	
138	1.37	-1972.39697265625	973.8111572265625	-582.68994140625	-1897.72509765625	973.9462890625	-703.2797241210938	-1923.483154296875	1066.168579101562	-617.5476684570312	-1671.930419921875	1244.993286132812	-493.5494689941406	-1929.549926757812	1190.217163085938	-625.9417114257812	-1863.535278320312	1454.94677734375	-575.7594604492188	-1695.5908203125	1360.849853515625	-511.2598571777344	-1969.570922851562	1339.222778320312	-526.3060302734375	-1854.631225585938	1410.174194335938	-679.8594360351562	-1725.65185546875	1428.025756835938	-708.8054809570312	-1699.512329101562	1313.422119140625	-806.2131958007812	-1669.451782226562	1101.32177734375	-844.9423217773438	-1767.899047851562	1084.64892578125	-819.9500732421875	-1610.740234375	903.6497802734375	-778.690185546875	-1630.091918945312	886.1639404296875	-849.6138305664062	-1644.204467773438	1014.88330078125	-847.79736328125	-1591.753051757812	737.2716674804688	-776.6200561523438	-1617.190307617188	805.0948486328125	-844.7515258789062	-1584.025268554688	817.8392333984375	-780.5634765625	-1878.087890625	1419.104858398438	-402.6587524414062	-1932.429809570312	1357.860595703125	-346.8226013183594	-1970.69677734375	1072.265991210938	-302.6562805175781	-1998.66552734375	1056.98828125	-362.8551025390625	-1863.82666015625	870.7718505859375	-295.9209899902344	-1948.363525390625	854.6945190429688	-277.872314453125	-1973.192749023438	1014.010498046875	-293.3775939941406	-1862.417724609375	712.0443115234375	-290.8651428222656	-1854.683227539062	771.1682739257812	-278.7276000976562	-1931.175659179688	767.827392578125	-271.6737670898438	-1819.338500976562	1646.119873046875	-458.316162109375	-1629.188354492188	1658.030883789062	-541.2130737304688	-1686.108520507812	1658.69677734375	-422.9447631835938	-1757.352416992188	1650.738159179688	-624.7756958007812	-1725.486450195312	861.6626586914062	-734.9098510742188	-1954.906005859375	863.55517578125	-408.66357421875	-1829.669067382812	896.2919921875	-403.9333801269531	-1680.79833984375	894.2203369140625	-614.7330932617188	-1728.0576171875	437.906005859375	-697.1370239257812	-1697.563842773438	590.2964477539062	-704.1973266601562	-1847.841430664062	34.64528656005859	-776.1856079101562	-1755.505981445312	285.6383972167969	-729.4226684570312	-1689.887451171875	49.45867919921875	-598.0255737304688	-1766.298583984375	58.59809112548828	-611.278564453125	-1712.024780273438	50.40674209594727	-711.7378540039062	-1922.01513671875	36.09302520751953	-756.6234741210938	-1930.119750976562	469.0597534179688	-423.8736572265625	-1931.542602539062	727.5303344726562	-379.6716918945312	-2005.295288085938	41.63018035888672	-465.2073364257812	-1951.471435546875	324.1404418945312	-419.5767517089844	-1794.510620117188	49.85459899902344	-399.293701171875	-1831.740600585938	57.30960845947266	-460.0903015136719	-1900.361694335938	47.84457397460938	-376.6565246582031	-2037.176147460938	33.98073196411133	-540.5076904296875	
